<?xml version="1.0" encoding="iso-8859-1"?>
<!-- Generator: Adobe Illustrator 22.0.1, SVG Export Plug-In . SVG Version: 6.00 Build 0)  -->
<svg version="1.1" id="Layer_1" xmlns="http://www.w3.org/2000/svg" xmlns:xlink="http://www.w3.org/1999/xlink" x="0px" y="0px"
	 viewBox="0 0 100.25 100.25" style="enable-background:new 0 0 100.25 100.25;" xml:space="preserve">
<g>
	<path d="M98.062,48.939c-0.356-0.357-0.867-0.511-1.359-0.41c-0.793,0.161-4.259,0.883-8.263,1.964
		c-0.072-0.16-0.162-0.314-0.293-0.446L73.678,35.416c-2.035-1.881-4.665-2.917-7.404-2.917c-2.93,0-5.69,1.163-7.778,3.28
		l-6.486,6.624c-0.571,0.583-0.571,1.516-0.001,2.099L59,51.643v13.566c0,11.188,9.008,20.289,20.079,20.289
		c0.828,0,1.5-0.672,1.5-1.5s-0.672-1.5-1.5-1.5C69.662,82.498,62,74.742,62,65.209V51.03c0-0.393-0.153-0.77-0.428-1.049
		l-6.393-6.529l5.454-5.57c1.517-1.537,3.519-2.383,5.64-2.383c1.982,0,3.889,0.753,5.319,2.073L85.266,51.4
		c-4.418,1.338-8.822,3.026-10.62,4.825c-2.088,2.087-3.204,4.892-3.143,7.897c0.062,2.982,1.276,5.807,3.423,7.952
		c2.146,2.146,4.97,3.361,7.951,3.423c0.079,0.001,0.157,0.002,0.235,0.002c2.917,0,5.63-1.111,7.663-3.145
		c3.92-3.92,7.32-20.211,7.695-22.056C98.571,49.806,98.417,49.295,98.062,48.939z M88.654,70.233
		c-1.465,1.465-3.428,2.266-5.544,2.266c-0.057,0-0.114,0-0.172-0.002c-2.204-0.045-4.296-0.948-5.892-2.544
		s-2.499-3.688-2.544-5.893c-0.045-2.181,0.759-4.211,2.264-5.715c2.232-2.232,11.435-4.865,18.279-6.395
		C93.751,57.688,91.074,67.812,88.654,70.233z"/>
	<circle cx="63" cy="43" r="2"/>
	<path d="M41.502,35.774c-2.085-2.112-4.846-3.275-7.775-3.275c-2.74,0-5.369,1.036-7.453,2.963L11.854,50.047
		c-0.131,0.132-0.221,0.286-0.293,0.446c-4.003-1.081-7.47-1.802-8.263-1.964c-0.496-0.101-1.004,0.054-1.359,0.41
		c-0.356,0.355-0.51,0.866-0.409,1.359c0.375,1.845,3.775,18.136,7.695,22.056c2.097,2.097,4.865,3.14,7.667,3.14
		c2.936-0.001,5.908-1.145,8.183-3.42c2.146-2.146,3.361-4.971,3.422-7.952c0.062-3.006-1.054-5.811-3.142-7.897
		c-1.799-1.799-6.203-3.487-10.62-4.825l13.625-13.781c1.479-1.367,3.386-2.12,5.368-2.12c2.12,0,4.123,0.846,5.635,2.378
		l5.458,5.575l-6.393,6.529C38.154,50.261,38,50.638,38,51.03v14.179c0,9.533-7.662,17.289-17.079,17.289
		c-0.829,0-1.5,0.672-1.5,1.5s0.671,1.5,1.5,1.5C31.993,85.498,41,76.396,41,65.209V51.643l6.992-7.141
		c0.571-0.583,0.571-1.516,0-2.099L41.502,35.774z M25.498,64.061c-0.045,2.204-0.949,4.297-2.544,5.893
		c-1.596,1.596-3.688,2.499-5.893,2.544c-2.169,0.072-4.21-0.759-5.715-2.264C9.113,68.001,6.48,58.799,4.951,51.955
		c5.737,1.294,15.862,3.97,18.283,6.391C24.738,59.85,25.542,61.88,25.498,64.061z"/>
	<circle cx="37" cy="43" r="2"/>
	<path d="M62.373,19.931c1.374-1.428,2.129-3.348,2.127-5.408c-0.006-4.419-3.648-8.018-8.12-8.023c-0.004,0-0.007,0-0.011,0
		c-2.559,0-4.894,1.187-6.391,3.094c-1.506-1.886-3.833-3.063-6.37-3.067c-0.004,0-0.007,0-0.011,0c-2.182,0-4.228,0.844-5.76,2.376
		c-1.509,1.509-2.339,3.511-2.336,5.635c0.002,2.054,0.751,3.962,2.109,5.375c2.737,2.849,11.019,10.829,11.37,11.167
		c0.291,0.28,0.666,0.42,1.041,0.42c0.376,0,0.753-0.141,1.044-0.423C51.414,30.739,59.639,22.763,62.373,19.931z M50.018,27.912
		c-2.371-2.292-8.116-7.863-10.245-10.079c-0.819-0.852-1.271-2.023-1.272-3.299c-0.002-1.322,0.516-2.568,1.458-3.51
		c0.966-0.966,2.257-1.498,3.638-1.498c0.002,0,0.005,0,0.007,0c2.309,0.003,4.342,1.537,4.942,3.729
		c0.179,0.652,0.771,1.104,1.447,1.104c0.002,0,0.005,0,0.007,0c0.678-0.003,1.27-0.461,1.443-1.118
		C52.024,11.038,54.05,9.5,56.37,9.5c0.002,0,0.004,0,0.006,0c2.822,0.003,5.12,2.258,5.124,5.027
		c0.001,1.279-0.456,2.459-1.287,3.322C58.085,20.053,52.376,25.619,50.018,27.912z"/>
</g>
</svg>
