<?xml version="1.0" encoding="iso-8859-1"?>
<!-- Generator: Adobe Illustrator 22.0.1, SVG Export Plug-In . SVG Version: 6.00 Build 0)  -->
<svg version="1.1" id="Layer_1" xmlns="http://www.w3.org/2000/svg" xmlns:xlink="http://www.w3.org/1999/xlink" x="0px" y="0px"
	 viewBox="0 0 100.25 100.25" style="enable-background:new 0 0 100.25 100.25;" xml:space="preserve">
<g>
	<path d="M71.15,18c-6.899,0-13.236,3.169-17.403,8.699c-0.557,0.588-0.547,1.516,0.029,2.091l10.603,10.603L49.439,54.332
		C49.158,54.613,49,54.995,49,55.393s0.158,0.779,0.439,1.061l8.939,8.939L43.439,80.332c-0.283,0.282-0.441,0.666-0.439,1.065
		s0.162,0.782,0.446,1.062c4.124,4.071,6.936,7.041,6.964,7.071c0.277,0.293,0.661,0.462,1.064,0.469c0.009,0,0.017,0,0.025,0
		c0.395,0,0.773-0.155,1.055-0.433c0.263-0.26,26.374-26.064,34.757-34.911C90.979,50.784,93,45.555,93,39.932
		C93,27.839,83.198,18,71.15,18z M85.134,52.593c-7.372,7.78-28.565,28.782-33.605,33.77c-1.027-1.065-2.745-2.827-4.902-4.975
		l14.935-14.935c0.586-0.586,0.586-1.535,0-2.121l-8.939-8.939l14.939-14.939C67.842,40.172,68,39.791,68,39.393
		s-0.158-0.779-0.439-1.061L56.85,27.622C60.434,23.398,65.58,21,71.15,21C81.544,21,90,29.493,90,39.932
		C90,44.785,88.271,49.281,85.134,52.593z"/>
	<path d="M51,65.393c0-0.397-0.158-0.779-0.439-1.061l-8.939-8.939l14.939-14.939c0.58-0.58,0.587-1.519,0.014-2.107
		c-0.176-0.18-1.3-1.312-2.618-2.64c-1.863-1.876-4.416-4.445-4.657-4.7c-0.529-0.558-1.045-1.107-1.55-1.646
		C42.284,23.533,37.565,18.5,28.85,18.5C16.802,18.5,7,28.088,7,39.874c0,5.468,1.992,10.534,5.608,14.264
		c3.259,3.361,8.167,7.867,13.364,12.637c3.88,3.562,7.892,7.244,11.489,10.699c0.291,0.279,0.665,0.418,1.039,0.418
		c0.384,0,0.768-0.146,1.061-0.439l11-10.999C50.842,66.172,51,65.79,51,65.393z M38.477,74.294
		C35.14,71.117,31.516,67.791,28,64.564c-5.163-4.739-10.041-9.216-13.238-12.515C11.691,48.882,10,44.559,10,39.874
		C10,29.743,18.456,21.5,28.85,21.5c7.416,0,11.314,4.158,16.71,9.912c0.51,0.543,1.029,1.097,1.562,1.659
		c0.246,0.259,2.189,2.217,4.705,4.75c0.578,0.582,1.118,1.125,1.557,1.567L38.439,54.332C38.158,54.613,38,54.995,38,55.393
		s0.158,0.779,0.439,1.061l8.939,8.939L38.477,74.294z"/>
	<path d="M29,26.392c-7.444,0-13.5,6.056-13.5,13.5c0,0.829,0.671,1.5,1.5,1.5s1.5-0.671,1.5-1.5c0-5.79,4.71-10.5,10.5-10.5
		c0.829,0,1.5-0.671,1.5-1.5S29.829,26.392,29,26.392z"/>
</g>
</svg>
