<?xml version="1.0" encoding="iso-8859-1"?>
<!-- Generator: Adobe Illustrator 22.0.1, SVG Export Plug-In . SVG Version: 6.00 Build 0)  -->
<svg version="1.1" id="Layer_1" xmlns="http://www.w3.org/2000/svg" xmlns:xlink="http://www.w3.org/1999/xlink" x="0px" y="0px"
	 viewBox="0 0 100.25 100.25" style="enable-background:new 0 0 100.25 100.25;" xml:space="preserve">
<path d="M87.5,76.25h-9.149c-0.016-0.018-0.022-0.042-0.039-0.06l-3.932-3.94H80.5c0.828,0,1.5-0.672,1.5-1.5s-0.672-1.5-1.5-1.5
	h-9.114l-9.443-9.463l22.118-22.118c0.586-0.585,0.586-1.535,0-2.121C77.582,29.068,68.967,25.5,59.804,25.5
	c-8.64,0-16.791,3.176-23.125,8.97l-7.852-7.869c0.893-0.278,1.735-0.739,2.429-1.432C32.381,24.046,33,22.553,33,20.965
	c0-1.59-0.621-3.084-1.747-4.208c-1.077-1.074-2.469-1.688-3.918-1.729c-2.688-0.073-10.493,0.01-10.824,0.014
	c-0.818,0.009-1.478,0.671-1.484,1.488c-0.002,0.33-0.062,8.104,0.007,10.779c0.036,1.465,0.652,2.868,1.735,3.948
	c1.162,1.159,2.688,1.739,4.213,1.739c1.524,0,3.049-0.579,4.209-1.736c0.729-0.727,1.233-1.607,1.506-2.546l7.858,7.875
	C28.707,42.936,25.5,51.123,25.5,59.804c0,9.163,3.568,17.778,10.048,24.257c0.293,0.293,0.677,0.439,1.061,0.439
	s0.768-0.146,1.061-0.439l22.153-22.153L69,71.106v9.644c0,0.828,0.672,1.5,1.5,1.5s1.5-0.672,1.5-1.5v-6.638l4,4.008v9.629
	c0,0.828,0.672,1.5,1.5,1.5s1.5-0.672,1.5-1.5v-8.5h8.5c0.828,0,1.5-0.672,1.5-1.5S88.328,76.25,87.5,76.25z M59.804,28.5
	c7.86,0,15.277,2.877,21.05,8.133l-21.03,21.03l-21.026-21.07C44.564,31.362,51.964,28.5,59.804,28.5z M23.072,29.136
	c-1.152,1.152-3.029,1.15-4.185-0.002c0,0,0,0,0,0c-0.535-0.533-0.838-1.207-0.855-1.899c-0.049-1.932-0.03-6.758-0.016-9.207
	c2.455-0.021,7.299-0.054,9.235,0c0.681,0.019,1.349,0.322,1.882,0.854C29.693,19.438,30,20.178,30,20.965
	c0,0.786-0.307,1.524-0.863,2.08c-0.944,0.941-2.411,1.132-3.566,0.466c-0.59-0.34-1.334-0.24-1.814,0.244
	c-0.479,0.483-0.573,1.229-0.228,1.816C24.207,26.726,24.02,28.192,23.072,29.136z M36.633,80.854
	c-5.256-5.772-8.133-13.189-8.133-21.05c0-7.879,2.894-15.312,8.175-21.091l21.028,21.072L36.633,80.854z"/>
</svg>
