<svg id="Layer_1" data-name="Layer 1" xmlns="http://www.w3.org/2000/svg" viewBox="0 0 101 101"><title>log_Artboard 2 copy 2</title><path d="M88.37,45.67H86.93V42.89C86.93,21.45,70.36,4,50,4h0A35.8,35.8,0,0,0,23.83,15.42,39.68,39.68,0,0,0,13,42.88v2.79h-.93c-4.26,0-7.74,4.33-7.74,9.64A11,11,0,0,0,6.49,62a7,7,0,0,0,5.6,3h1.35c2.69,18.68,18,33,36.53,33h0A35.8,35.8,0,0,0,76.13,86.58,39.36,39.36,0,0,0,86.51,65h1.85c4.26,0,7.74-4.33,7.74-9.64S92.63,45.67,88.37,45.67ZM50,7c12.11,0,22.74,6.74,28.75,16.84a37.94,37.94,0,0,1-23.36-.74A38.12,38.12,0,0,1,37,9.71,32.3,32.3,0,0,1,50,7ZM12.09,62a4.11,4.11,0,0,1-3.22-1.8,8,8,0,0,1-1.52-4.85c0-3.6,2.17-6.65,4.74-6.65H13v6.17h0v4.27c0,1,0,1.91.11,2.85ZM74,84.52A32.83,32.83,0,0,1,50,95h0C31.25,95,16,78.9,16,59.11V47.17h0V42.88a36.7,36.7,0,0,1,10-25.4,34.23,34.23,0,0,1,8.28-6.42A41,41,0,0,0,54.39,25.94a42.78,42.78,0,0,0,14,2.41,38.36,38.36,0,0,0,11.76-1.81,37.29,37.29,0,0,1,3.74,16.35V54.83h0v4.28A36.7,36.7,0,0,1,74,84.52ZM88.36,62H86.82c.06-.94.11-1.88.11-2.83V48.67h1.44c2.57,0,4.74,3,4.73,6.64S90.93,62,88.36,62Z"/><path d="M63.4,73.68a1.5,1.5,0,0,0-2,.8,12,12,0,0,1-21.88.47,1.5,1.5,0,1,0-2.71,1.29,15,15,0,0,0,27.35-.59A1.5,1.5,0,0,0,63.4,73.68Z"/><path d="M50.21,68.64h.42c2.72,0,5.35-1.39,7.81-4.14a1.5,1.5,0,0,0-2.23-2c-1.95,2.17-3.9,3.23-5.82,3.14-3-.14-5.09-3-5.13-3a1.5,1.5,0,0,0-2.42,1.77C42.95,64.56,45.79,68.42,50.21,68.64Z"/><path d="M73.64,47.41c-1.95,2.17-3.91,3.23-5.82,3.14-3-.14-5.09-3-5.13-3a1.5,1.5,0,0,0-2.42,1.77c.12.16,3,4,7.38,4.25h.42c2.72,0,5.35-1.39,7.81-4.14a1.5,1.5,0,0,0-2.23-2Z"/><path d="M39.85,49.41a1.5,1.5,0,0,0-2.23-2c-1.95,2.17-3.9,3.23-5.82,3.14-3-.14-5.09-3-5.13-3a1.5,1.5,0,0,0-2.42,1.77c.12.16,3,4,7.38,4.25H32C34.76,53.55,37.38,52.16,39.85,49.41Z"/></svg>